<?xml version="1.0" encoding="UTF-8"?>
<!DOCTYPE svg PUBLIC "-//W3C//DTD SVG 1.1//EN" "http://www.w3.org/Graphics/SVG/1.1/DTD/svg11.dtd">
<!-- Creator: CorelDRAW -->
<svg xmlns="http://www.w3.org/2000/svg" xml:space="preserve" width="160px" height="40px" version="1.1" style="shape-rendering:geometricPrecision; text-rendering:geometricPrecision; image-rendering:optimizeQuality; fill-rule:evenodd; clip-rule:evenodd"
viewBox="0 0 299.79 74.95"
 xmlns:xlink="http://www.w3.org/1999/xlink"
 xmlns:xodm="http://www.corel.com/coreldraw/odm/2003">
 <defs>
  <style type="text/css">
   <![CDATA[
    .fil0 {fill:#FFFFFB}
   ]]>
  </style>
 </defs>
 <g id="Layer_x0020_1">
  <metadata id="CorelCorpID_0Corel-Layer"/>
  <path class="fil0" d="M196.78 61.96l0 12.65 2.92 0.02 0.01 -17.97c0.06,0.62 4.23,11.18 5.02,13.32 0.45,1.24 1.47,3.45 1.72,4.65l2.71 0.01c0.22,-1 5.33,-13.35 6.28,-15.84l0.72 -1.88c0.02,-0.04 0.04,-0.08 0.06,-0.12 0.11,-0.2 0.14,-0.23 0.23,-0.34l-0.04 18.18 3 0 0 -24.01 -3.71 -0.01 -0.23 0.6 -7.51 18.69c-0.61,-0.69 -6.18,-16.79 -7.61,-19.26l-3.55 0.05 -0.02 11.26zm79.37 -31.66l-0.4 -0.48c-0.18,-0.24 -0.27,-0.42 -0.38,-0.6 -2.61,-4.27 -5.66,-8.71 -8.34,-12.96 -0.52,-0.82 -1.02,-1.54 -1.54,-2.37 -0.51,-0.81 -1.07,-1.73 -1.6,-2.36l-3.49 -0.04 0 24.04 3 0 -0.01 -19.29c0.16,0.16 0.08,0.07 0.26,0.28l1.35 2.09c1.12,1.84 10.65,16.82 10.96,16.92l3.17 0 -0.01 -24.02 -2.93 0 -0.04 18.79zm-173.28 5.23l3 0 -0.02 -19.29c0.58,0.59 2.6,3.92 3.14,4.74 1.05,1.57 2.05,3.26 3.09,4.89l6.18 9.6 3.33 0.06 0 -24.04 -3 0.01 0.03 18.79c-0.46,-0.33 -8.57,-13.14 -9.13,-14.03l-3.13 -4.73 -3.5 -0.04 0.01 24.04zm53.12 -0.03l2.92 0 0.05 -19.22c0.48,0.35 0.22,0.13 0.52,0.57l2.64 4.17c1.37,2.07 8.33,13.29 9.31,14.49l3.31 0.02 -0.01 -24.01 -2.93 -0.01 -0.06 18.83 -10.71 -16.52c-0.46,-0.72 -1.07,-1.71 -1.55,-2.31l-3.45 0.01 -0.04 23.98zm-60.63 -2.17l0.27 2.21 2.58 -0.02 0 -13.21 -10.2 -0.01 -0.01 2.81 7.32 0.02c-0.29,4.89 -1.78,8.32 -7.4,7.8 -4.24,-0.39 -6.39,-3.95 -6.69,-8.34 -0.69,-10.07 6.91,-12.04 11.19,-9.84 0.76,0.4 1.54,1.14 1.98,1.77 0.62,0.88 0.74,1.64 1.24,2.63l2.8 0c-0.19,-9.47 -16.63,-11.93 -19.8,0.22 -1.09,4.19 -0.65,9.34 2.06,12.89 0.31,0.4 0.71,0.71 1.12,1.15 2.38,2.55 9.03,3.55 12.82,0.45 0.15,-0.13 0.12,-0.11 0.27,-0.22l0.45 -0.31zm87.82 -0.65l-0.03 -18.33c3.42,-0.09 7.16,-0.36 9.77,1.33 3.48,2.27 4.33,8.38 2.59,12.41 -2.23,5.18 -7.22,4.71 -12.33,4.59zm-2.99 2.84c4.45,0.06 10.66,0.6 14,-1.59 7.14,-4.69 7.03,-16.54 0.18,-20.82 -3.66,-2.29 -9.46,-1.58 -14.19,-1.62l0.01 24.03zm-22.42 17.96c3.47,-0.17 7.31,-0.31 9.79,1.4 4.35,2.99 4.82,12.09 -0.1,15.57 -2.3,1.62 -6.51,1.53 -9.71,1.34l0.02 -18.31zm-2.99 21.2c6.24,-0.58 14.45,2.1 18.24,-6.65 0.42,-0.99 0.71,-2.09 0.88,-3.19 0.21,-1.37 0.01,-2.84 0.2,-4.14 -0.46,-0.63 -0.47,-2.11 -0.79,-2.95 -3.07,-8.19 -10.39,-7.28 -18.53,-7.11l0 24.04zm79.66 -60.27c1.02,-0.18 5.78,-0.13 6.84,0.05 2.05,0.33 3.3,1.54 3.25,3.79 -0.04,2.28 -1.29,3.29 -3.39,3.65 -1.12,0.18 -5.67,0.26 -6.71,0.06l0.01 -7.55zm-3.01 21.11l3 0.01 0 -10.6c1.31,-0.24 7.88,-0.58 9.16,1.36 1.27,1.92 -0.22,8.15 1.39,9.24l2.89 0c-1.01,-2.83 -0.42,-4.11 -0.63,-7.06 -0.08,-1.08 -0.27,-2.07 -0.75,-2.97 -0.93,-1.76 -1.35,-1.37 -1.84,-2.12 4.37,-2.34 3.34,-8.51 0.79,-10.3 -1.92,-1.35 -3.37,-1.57 -6.17,-1.57 -2.57,0.01 -5.22,0.06 -7.78,0l-0.06 24.01zm-198.36 0l15.23 0.01 0.52 -2.84 -12.78 0 -0.01 -8.37 11.58 -0.01 0 -2.81 -11.54 -0.03 -0.04 -7.13 12.15 0 0.02 -2.84 -15.14 -0.01 0.01 24.03zm147.75 24.28l-0.01 -6.36 12.18 0 -0.11 -2.79 -15 -0.06 -0.03 24.02c1.88,0.07 14.56,0.24 15.22,-0.1 0.4,-0.54 0.45,-1.92 0.51,-2.7l-12.74 0 -0.02 -8.38 11.55 0.02 0.04 -2.8 -11.55 -0.06 -0.04 -0.79zm-127.41 -31.55l-2.93 -0.04c0.17,5.39 4.75,8.17 10.48,7.47 7.32,-0.89 7.67,-7.98 5.51,-10.68 -3.54,-4.42 -10.89,-3.08 -11.76,-6.48 -1.28,-4.93 5.55,-5.42 7.99,-3.41 0.96,0.78 1.12,1.66 1.56,3.11l2.92 -0.01c-0.18,-5.27 -5.04,-8.19 -10.68,-6.73 -2.38,0.62 -4.12,2.11 -4.77,4.35 -1.99,6.88 5.91,7.92 9.06,8.97 6.37,2.15 4.43,9.17 -2.78,8.13 -3.05,-0.45 -3.69,-1.99 -4.6,-4.68zm88.24 26.72l3.34 8.94 -2.76 0.01 -3.83 -0.01 3.25 -8.94zm6.68 9.03c-0.65,-0.6 -0.98,-2.15 -1.34,-3.11 -0.4,-1.05 -0.78,-2.05 -1.16,-3.06 -0.78,-2.02 -1.58,-4.04 -2.33,-6.14l-0.4 -1.04 -3.02 -0.03 -8.7 24c3.69,0.03 2.93,0.45 3.75,-1.77 0.26,-0.69 0.49,-1.33 0.74,-2.02 0.47,-1.34 1.04,-2.69 1.46,-4.04l8.77 -0.01 2.21 5.96c0.86,2.35 0.13,1.9 3.9,1.9 -0.55,-2 -3.89,-9.5 -3.88,-10.64zm-49.06 -8.97c0.14,0.15 0.11,0.1 0.26,0.33 0.02,0.04 0.04,0.08 0.06,0.12l0.28 0.71c0.13,0.37 0.25,0.72 0.39,1.07l2.47 6.63 -6.56 0.03 3.1 -8.89zm-6.25 8.97l-3.89 10.63 3.04 0 2.94 -7.85 8.64 0c0.38,0.54 1.27,3.18 1.55,3.96 1.74,4.75 0.82,3.9 4.66,3.9 -0.4,-1.42 -2.06,-4.85 -2.08,-5.91 -0.3,-0.3 -0.11,-0.02 -0.36,-0.53 -0.04,-0.09 -0.17,-0.46 -0.22,-0.59l-6.49 -16.97 -2.9 0.02 -4.89 13.34zm46.61 -39.22c0.24,-0.92 2.92,-8.53 3.23,-8.95l3.36 8.98 -6.59 -0.03zm-7.01 10.74l3.11 0c0.29,-1.3 0.95,-2.71 1.4,-4 0.18,-0.5 1.12,-3.75 1.68,-3.89l8.5 0 2.9 7.88 3.18 0.02 -9.1 -24.01c-0.7,-0.01 -1.4,-0.02 -2.07,-0.02 -1.39,0 -0.97,0.4 -2.42,4.32 -0.81,2.18 -1.62,4.3 -2.4,6.54 -0.77,2.2 -1.59,4.37 -2.39,6.55 -0.73,1.96 -1.93,4.73 -2.39,6.61zm82.11 -12.81l-0.03 -8.31c1.02,-0.16 6.03,-0.13 7.03,0.07 2.07,0.41 3.2,1.81 3.2,4.11 0,2.28 -1.08,3.64 -3.13,4.03 -1.23,0.24 -5.7,0.22 -7.07,0.1zm-3.04 12.81l3.01 0.01 0 -9.9c3.42,-0.47 6.82,0.68 9.92,-1.03 2.21,-1.23 3.88,-3.78 3.31,-7.42 -1.11,-7.13 -9.5,-5.61 -16.17,-5.66l-0.07 24zm-100.98 26.07c0.57,2.22 -0.43,3.95 1.83,8.28 3.23,6.21 12.85,6.88 16.66,1.14 0.46,-0.69 1.49,-2.66 1.43,-3.68l-2.84 0.01c-1.11,1.78 -1.23,2.95 -3.02,3.96 -3.83,2.16 -10.8,0.31 -10.85,-8.58 -0.03,-4.38 1.78,-7.98 4.92,-9.16 3.37,-1.26 7.71,-0.12 8.87,4.47l2.96 0.03 -0.1 -1.26c-0.7,-0.72 -0.43,-2.01 -2.77,-4.38 -1.9,-1.92 -6.19,-2.56 -9.26,-1.76 -2.49,0.65 -4.37,2.32 -5.47,3.97 -2.23,3.35 -1.9,6.19 -2.36,6.96zm124.14 0.64c0.41,-1.07 2.72,-4.6 3.46,-5.82 0.56,-0.91 1.11,-1.88 1.72,-2.83 0.57,-0.89 1.3,-1.99 1.72,-2.96l-3.3 0.08c-1.32,1.88 -6.37,10.72 -7.01,11.5 -0.34,-0.26 -6.56,-10.83 -6.78,-11.56 -1.09,-0.03 -2.47,-0.2 -3.48,0.12 2.29,4.14 5.1,8.55 7.52,12.74 0.72,1.24 1.1,1.31 1.09,2.94 -0.03,2.73 0.03,5.47 -0.01,8.2l3.04 0c-0.01,-2.46 0,-4.92 0,-7.38 0,-1.74 -0.18,-1.62 0.61,-2.88 0.34,-0.54 1.06,-1.92 1.42,-2.15zm46.68 -47.91l7.6 0.03 0.03 21.17 2.99 0.01 0 -21.13 7.62 -0.06 0.02 -2.83 -18.21 0 -0.05 2.81zm-29.56 21.2l2.97 0.01 -0.01 -24.02 -2.9 0 -0.06 24.01zm-180.59 -0.04l2.89 0.02 0.06 -23.96 -2.92 -0.02 -0.03 23.96zm-71 11.29l4.97 0 0.06 -9.33 -5.04 0 0.01 9.33zm6.43 -41.32c5.79,0.25 9.57,0.04 14.65,4.53 10.5,9.28 6.81,25.8 -5.92,30.29 -3.37,1.2 -5.15,0.85 -8.72,1.04l0 5.45c4.98,-0.1 9.55,-1.44 13.37,-4.14 6.34,-4.49 10.1,-11.31 10.13,-19.17 0.03,-7.26 -3.4,-13.15 -6.85,-16.6 -3.21,-3.21 -9.65,-7.15 -16.67,-6.83l0.01 5.43zm-6.49 15.25l5.09 0 0 0.84 -5.09 0 0 -0.84zm0 1.5l5.09 0 0 0.84 -5.09 0 0 -0.84zm0 1.51l5.09 0 0 0.84 -5.09 0 0 -0.84zm0 1.5l5.09 0 0 0.84 -5.09 0 0 -0.84zm1.92 7.69l1.24 0 0 -5.04 1.09 0 1.16 5.04 -1.16 3.5c-1.14,0 -2.28,0 -3.41,0l-1.16 -3.5 1.16 -5.04 1.08 0 0 5.04zm-1.8 -32.9l4.97 0 0.06 9.33 -5.04 0 0.01 -9.33zm1.86 13.86l1.24 0 0 5.05 1.09 0 1.15 -5.05 -1.15 -3.49c-1.14,0 -2.28,0 -3.41,0l-1.16 3.49 1.16 5.05 1.08 0 0 -5.05z"/>
 </g>
</svg>
