<?xml version="1.0" encoding="UTF-8"?>
<!DOCTYPE svg PUBLIC "-//W3C//DTD SVG 1.1//EN" "http://www.w3.org/Graphics/SVG/1.1/DTD/svg11.dtd">
<!-- Creator: CorelDRAW -->
<svg xmlns="http://www.w3.org/2000/svg" xml:space="preserve" width="32px" height="50px" version="1.1" style="shape-rendering:geometricPrecision; text-rendering:geometricPrecision; image-rendering:optimizeQuality; fill-rule:evenodd; clip-rule:evenodd"
viewBox="0 0 0.6 0.94"
 xmlns:xlink="http://www.w3.org/1999/xlink"
 xmlns:xodm="http://www.corel.com/coreldraw/odm/2003">
 <defs>
  <style type="text/css">
   <![CDATA[
    .fil0 {fill:white}
   ]]>
  </style>
 </defs>
 <g id="Layer_x0020_1">
  <metadata id="CorelCorpID_0Corel-Layer"/>
  <path class="fil0" d="M0.01 0.94l0.1 0 0 -0.19 -0.1 0 0 0.19zm0.13 -0.83c0.11,0 0.19,0 0.29,0.09 0.21,0.19 0.13,0.52 -0.12,0.61 -0.07,0.02 -0.1,0.01 -0.17,0.02l0 0.11c0.1,0 0.19,-0.03 0.26,-0.09 0.13,-0.09 0.2,-0.22 0.2,-0.38 0.01,-0.15 -0.06,-0.26 -0.13,-0.33 -0.07,-0.07 -0.19,-0.15 -0.33,-0.14l0 0.11zm-0.13 0.31l0.1 0 0 0.01 -0.1 0 0 -0.01zm0 0.03l0.1 0 0 0.01 -0.1 0 0 -0.01zm0 0.03l0.1 0 0 0.01 -0.1 0 0 -0.01zm0 0.03l0.1 0 0 0.01 -0.1 0 0 -0.01zm0.03 0.15l0.03 0 0 -0.1 0.02 0 0.02 0.1 -0.02 0.07c-0.02,0 -0.04,0 -0.07,0l-0.02 -0.07 0.02 -0.1 0.02 0 0 0.1zm-0.03 -0.66l0.1 0 0 0.19 -0.1 0 0 -0.19zm0.04 0.28l0.02 0 0 0.1 0.02 0 0.03 -0.1 -0.03 -0.07c-0.02,0 -0.04,0 -0.07,0l-0.02 0.07 0.02 0.1 0.03 0 0 -0.1z"/>
 </g>
</svg>
